General
      Complete name : La.vita.e.bella.[Life.Is.Beautiful].1997.DVDRip.H264.AAC.Gopo.mp4
      Format : MPEG-4
      Format profile : Base Media
      Codec ID : isom
      File size : 1.10 GiB
      Duration : 1h 51mn
      Overall bit rate : 1 410 Kbps
      Encoded date : UTC 2010-01-09 17:04:48
      Tagged date : UTC 2010-01-09 17:04:48
      Writing application : Yamb 2.1.0.0 [http://yamb.unite-video.com]
   Video #1
      ID : 1
      Format : AVC
      Format/Info : Advanced Video Codec
      Format profile : High@L4.1
      Format settings, CABAC : Yes
      Format settings, ReFrames : 5 frames
      Codec ID : avc1
      Codec ID/Info : Advanced Video Coding
      Duration : 1h 51mn
      Bit rate mode : Variable
      Bit rate : 1 081 Kbps
      Maximum bit rate : 4 062 Kbps
      Width : 720 pixels
      Height : 384 pixels
      Display aspect ratio : 1.875
      Frame rate mode : Constant
      Frame rate : 25.000 fps
      Resolution : 24 bits
      Colorimetry : 4:2:0
      Scan type : Progressive
      Bits/(Pixel*Frame) : 0.156
      Stream size : 862 MiB (77%)
      Writing library : x264 core 80 r1376 3feaec2
      Encoding settings : cabac=1 / ref=5 / deblock=1:0:0 / analyse=0x3:0x113 / me=umh / subme=8 / psy=1 / psy_rd=1.0:0.0 / mixed_ref=1 / me_range=16 / chroma_me=1 / trellis=2 / 8x8dct=1 / cqm=0 / deadzone=21,11 / fast_pskip=1 / chroma_qp_offset=-2 / threads=3 / sliced_threads=0 / nr=0 / decimate=1 / mbaff=0 / constrained_intra=0 / bframes=3 / b_pyramid=0 / b_adapt=2 / b_bias=0 / direct=3 / wpredb=1 / wpredp=2 / keyint=250 / keyint_min=25 / scenecut=40 / rc_lookahead=30 / rc=2pass / mbtree=1 / bitrate=1081 / ratetol=1.0 / qcomp=0.50 / qpmin=10 / qpmax=51 / qpstep=4 / cplxblur=20.0 / qblur=0.5 / vbv_maxrate=24000 / vbv_bufsize=24000 / ip_ratio=1.10 / aq=1:1.00
      Encoded date : UTC 2010-01-08 10:28:53
      Tagged date : UTC 2010-01-09 17:07:39
   Audio #2
      ID : 2
      Format : AAC
      Format/Info : Advanced Audio Codec
      Format version : Version 4
      Format profile : LC
      Format settings, SBR : No
      Codec ID : 40
      Duration : 1h 51mn
      Bit rate mode : Variable
      Bit rate : 326 Kbps
      Maximum bit rate : 435 Kbps
      Channel(s) : 6 channels
      Channel positions : Front: L C R, Rear: L R, LFE
      Sampling rate : 48.0 KHz
      Resolution : 16 bits
      Stream size : 259 MiB (23%)
      Encoded date : UTC 2010-01-09 17:06:54
      Tagged date : UTC 2010-01-09 17:07:39
	Sample : YES
	Subtitle : English,Romanian

PLOT

In 1930s Italy, a carefree Jewish book keeper named Guido starts a fairy tale life by courting and marrying a lovely woman from a nearby city. Guido and his wife have a son and live happily together until the occupation of Italy by German forces. In an attempt to hold his family together and help his son survive the horrors of a Jewish Concentration Camp, Guido imagines that the Holocaust is a game and that the grand prize for winning is a tank.
CASTING 
     
      Roberto Benigni	... 	Guido Orefice
	Nicoletta Braschi	... 	Dora
	Giorgio Cantarini	... 	Giosué Orefice
	Giustino Durano	... 	Eliseo Orefice
	Sergio Bini Bustric	... 	Ferruccio Papini (as Sergio Bustric)
	Marisa Paredes	... 	Madre di Dora
	Horst Buchholz	... 	Doctor Lessing (as Horst Bucholz)
	Lidia Alfonsi	... 	Guicciardini
	Giuliana Lojodice	... 	School Principal
	Amerigo Fontani	... 	Rodolfo
	Pietro De Silva	... 	Bartolomeo
	Francesco Guzzo	... 	Vittorino
	Raffaella Lebboroni	... 	Elena
	Claudio Alfonsi	... 	Amico Rodolfo
	Gil Baroni	... 	Prefect

SOURCE: from piratebay :p

Notes: For best performance I suggest you to use KMPlayer(find it with google) for playback
I haven't tested the movies on a PS3 or Xbox or other devices than PC because I don't own one of them but feel free to test them if you have the oportunity.
